<svg width="799" height="240" viewBox="0 0 799 240" fill="none" xmlns="http://www.w3.org/2000/svg">
<path d="M130.8 83.04C130.8 84.1599 130.48 85.0399 129.84 85.6799C129.2 86.3199 128.32 86.6399 127.2 86.6399H55.68C54.88 86.6399 54.48 87.0399 54.48 87.8399V110.4C54.48 111.2 54.88 111.6 55.68 111.6H100.08C101.2 111.6 102.08 111.92 102.72 112.56C103.36 113.2 103.68 114.08 103.68 115.2V146.4C103.68 147.52 103.36 148.4 102.72 149.04C102.08 149.68 101.2 150 100.08 150H55.68C54.88 150 54.48 150.4 54.48 151.2V212.4C54.48 213.52 54.16 214.4 53.52 215.04C52.88 215.68 52 216 50.88 216H12.96C11.84 216 10.96 215.68 10.32 215.04C9.67999 214.4 9.35999 213.52 9.35999 212.4V51.5999C9.35999 50.4799 9.67999 49.5999 10.32 48.9599C10.96 48.3199 11.84 47.9999 12.96 47.9999H127.2C128.32 47.9999 129.2 48.3199 129.84 48.9599C130.48 49.5999 130.8 50.4799 130.8 51.5999V83.04Z" fill="#1C252E"/>
<path d="M149.851 216C148.731 216 147.851 215.68 147.211 215.04C146.571 214.4 146.251 213.52 146.251 212.4V51.5999C146.251 50.4799 146.571 49.5999 147.211 48.9599C147.851 48.3199 148.731 47.9999 149.851 47.9999H187.771C188.891 47.9999 189.771 48.3199 190.411 48.9599C191.051 49.5999 191.371 50.4799 191.371 51.5999V176.16C191.371 176.96 191.771 177.36 192.571 177.36H266.731C267.851 177.36 268.731 177.68 269.371 178.32C270.011 178.96 270.331 179.84 270.331 180.96V212.4C270.331 213.52 270.011 214.4 269.371 215.04C268.731 215.68 267.851 216 266.731 216H149.851Z" fill="#1C252E"/>
<path d="M409.743 83.04C409.743 84.1599 409.423 85.0399 408.783 85.6799C408.143 86.3199 407.263 86.6399 406.143 86.6399H334.383C333.583 86.6399 333.183 87.0399 333.183 87.8399V110.4C333.183 111.2 333.583 111.6 334.383 111.6H378.783C379.903 111.6 380.783 111.92 381.423 112.56C382.063 113.2 382.383 114.08 382.383 115.2V146.4C382.383 147.52 382.063 148.4 381.423 149.04C380.783 149.68 379.903 150 378.783 150H334.383C333.583 150 333.183 150.4 333.183 151.2V176.16C333.183 176.96 333.583 177.36 334.383 177.36H406.143C407.263 177.36 408.143 177.68 408.783 178.32C409.423 178.96 409.743 179.84 409.743 180.96V212.4C409.743 213.52 409.423 214.4 408.783 215.04C408.143 215.68 407.263 216 406.143 216H291.663C290.543 216 289.663 215.68 289.023 215.04C288.383 214.4 288.063 213.52 288.063 212.4V51.5999C288.063 50.4799 288.383 49.5999 289.023 48.9599C289.663 48.3199 290.543 47.9999 291.663 47.9999H406.143C407.263 47.9999 408.143 48.3199 408.783 48.9599C409.423 49.5999 409.743 50.4799 409.743 51.5999V83.04Z" fill="#1C252E"/>
<path d="M428.698 216C427.738 216 426.938 215.84 426.298 215.52C425.818 215.04 425.578 214.48 425.578 213.84C425.578 213.04 425.818 212.32 426.298 211.68L469.978 132.72C470.298 132.24 470.298 131.76 469.978 131.28L426.298 52.3199C425.818 51.5199 425.578 50.7999 425.578 50.1599C425.578 49.5199 425.818 49.0399 426.298 48.72C426.938 48.2399 427.738 47.9999 428.698 47.9999H470.218C472.298 47.9999 473.738 48.8799 474.538 50.64L498.058 96C498.538 96.64 499.018 96.64 499.498 96L523.018 50.64C523.978 48.8799 525.418 47.9999 527.338 47.9999H568.618C569.578 47.9999 570.298 48.2399 570.778 48.72C571.418 49.0399 571.738 49.5199 571.738 50.1599C571.738 50.7999 571.498 51.5199 571.018 52.3199L527.578 131.28C527.418 131.76 527.418 132.24 527.578 132.72L571.018 211.68C571.498 212.32 571.738 213.04 571.738 213.84C571.738 214.48 571.418 215.04 570.778 215.52C570.298 215.84 569.578 216 568.618 216H527.578C525.658 216 524.218 215.12 523.258 213.36L499.498 168.24C499.018 167.44 498.538 167.44 498.058 168.24L474.298 213.36C473.498 215.12 472.058 216 469.978 216H428.698Z" fill="#1C252E"/>
<path d="M594.741 216C593.621 216 592.741 215.68 592.101 215.04C591.461 214.4 591.141 213.52 591.141 212.4V51.5999C591.141 50.4799 591.461 49.5999 592.101 48.9599C592.741 48.3199 593.621 47.9999 594.741 47.9999H632.661C633.781 47.9999 634.661 48.3199 635.301 48.9599C635.941 49.5999 636.261 50.4799 636.261 51.5999V212.4C636.261 213.52 635.941 214.4 635.301 215.04C634.661 215.68 633.781 216 632.661 216H594.741Z" fill="#1C252E"/>
<path d="M723.931 218.88C710.651 218.88 698.891 216.24 688.651 210.96C678.571 205.52 670.731 198 665.131 188.4C659.531 178.64 656.731 167.36 656.731 154.56V109.44C656.731 96.96 659.531 85.92 665.131 76.32C670.731 66.72 678.571 59.28 688.651 54C698.891 48.72 710.651 46.08 723.931 46.08C737.371 46.08 749.131 48.72 759.211 54C769.451 59.28 777.371 66.72 782.971 76.32C788.571 85.92 791.371 96.96 791.371 109.44V154.56C791.371 167.36 788.571 178.64 782.971 188.4C777.371 198 769.451 205.52 759.211 210.96C749.131 216.24 737.371 218.88 723.931 218.88ZM723.931 180.24C730.651 180.24 736.011 178.08 740.011 173.76C744.171 169.28 746.251 163.36 746.251 156V108.96C746.251 101.6 744.171 95.76 740.011 91.4399C736.011 86.9599 730.651 84.7199 723.931 84.7199C717.371 84.7199 712.011 86.9599 707.851 91.4399C703.851 95.76 701.851 101.6 701.851 108.96V156C701.851 163.36 703.851 169.28 707.851 173.76C712.011 178.08 717.371 180.24 723.931 180.24Z" fill="#1C252E"/>
</svg>
